<svg version="1.1" id="Layer_1" xmlns:x="ns_extend;" xmlns:i="ns_ai;" xmlns:graph="ns_graphs;" xmlns="http://www.w3.org/2000/svg" xmlns:xlink="http://www.w3.org/1999/xlink" x="0px" y="0px" viewBox="0 0 200.6 276.8" style="enable-background:new 0 0 200.6 276.8;" xml:space="preserve">
 <style type="text/css">
  .st0{fill:#00FC87;}
 </style>
 <metadata>
  <sfw xmlns="ns_sfw;">
   <slices>
   </slices>
   <sliceSourceBounds bottomLeftOrigin="true" height="276.8" width="200.6" x="0" y="0">
   </sliceSourceBounds>
  </sfw>
 </metadata>
 <g id="_x31_0_1_">
  <g>
   <g>
    <path d="M100.3,276.8H0V0h13v263.8h87.3c19.1,0,37.8-5.1,52.7-14.5c22-13.8,34.6-35.5,34.6-59.4c0-24-12.6-45.6-34.6-59.4
				c-14.9-9.3-33.6-14.5-52.7-14.5H86.8v-13h13.5c21.5,0,42.7,5.8,59.6,16.5c25.8,16.2,40.7,41.9,40.7,70.5s-14.8,54.2-40.7,70.5
				C143,271,121.8,276.8,100.3,276.8z">
    </path>
   </g>
   <g>
    <path d="M100.3,247.9H28.9V0h13v234.9h58.3c13.8,0,27-3.6,37.3-10c13.4-8.4,21-21.1,21-34.9c0-13.8-7.7-26.5-21-34.9
				c-10.3-6.5-23.6-10-37.3-10H86.8v-13h13.5c16.2,0,31.9,4.3,44.2,12c17.2,10.8,27.1,27.6,27.1,46s-9.9,35.1-27.1,46
				C132.2,243.6,116.5,247.9,100.3,247.9z">
    </path>
   </g>
   <g>
    <path d="M100.3,219H57.9V0h13v205.9h29.4c17.3,0,29.4-8.5,29.4-16c0-7.6-12.1-16-29.4-16H86.8v-13h13.5
				c23.8,0,42.4,12.8,42.4,29.1S124.1,219,100.3,219z">
    </path>
   </g>
   <g>
    <path class="st0" d="M137.6,52c13.4,8.4,21,21.1,21,34.9c0,4.3-0.7,8.5-2.2,12.5c4,1.9,7.9,4,11.6,6.3c2.4-5.9,3.6-12.3,3.6-18.8
				c0-18.4-9.9-35.1-27.1-46c-12.4-7.8-28.1-12-44.2-12H86.8v13h13.5C114,42,127.3,45.5,137.6,52z">
    </path>
    <path class="st0" d="M153,27.5c22,13.8,34.6,35.5,34.6,59.4c0,10-2.2,19.6-6.3,28.4c3.5,3,6.8,6.1,9.8,9.4
				c6.2-11.5,9.5-24.4,9.5-37.8c0-28.6-14.8-54.2-40.7-70.5C143,5.8,121.8,0,100.3,0H86.8v13h13.5C119.4,13,138.1,18.2,153,27.5z">
    </path>
    <path class="st0" d="M129.7,86.9c0,1.1-0.2,2.2-0.7,3.2c4.3,0.9,8.5,2.1,12.6,3.4c0.7-2.1,1.1-4.3,1.1-6.6
				c0-16.3-18.6-29.1-42.4-29.1H86.8v13h13.5C115.9,70.9,129.7,78.4,129.7,86.9z">
    </path>
   </g>
  </g>
 </g>
</svg>