<?xml version="1.0" encoding="UTF-8"?><svg id="Layer_1" xmlns="http://www.w3.org/2000/svg" width="591" height="116" viewBox="0 0 591 116"><defs><style>.cls-1{fill:none;}.cls-2{fill:#3d9956;}</style></defs><path d="m128.44,96v-56h36.56v8.24h-26.32v15.36h23.92v8h-23.92v16.16h26.32v8.24h-36.56Z"/><path d="m170.44,96v-39.68h9.04l.88,5.36c1.28-1.92,2.97-3.45,5.08-4.6,2.11-1.15,4.55-1.72,7.32-1.72,6.13,0,10.48,2.37,13.04,7.12,1.44-2.19,3.37-3.92,5.8-5.2,2.43-1.28,5.08-1.92,7.96-1.92,5.17,0,9.15,1.55,11.92,4.64,2.77,3.09,4.16,7.63,4.16,13.6v22.4h-10.24v-21.44c0-3.41-.65-6.03-1.96-7.84-1.31-1.81-3.32-2.72-6.04-2.72s-5,1.01-6.68,3.04c-1.68,2.03-2.52,4.85-2.52,8.48v20.48h-10.24v-21.44c0-3.41-.67-6.03-2-7.84-1.33-1.81-3.39-2.72-6.16-2.72s-4.92,1.01-6.6,3.04c-1.68,2.03-2.52,4.85-2.52,8.48v20.48h-10.24Z"/><path d="m255.08,96.96c-3.41,0-6.21-.55-8.4-1.64-2.19-1.09-3.81-2.55-4.88-4.36-1.07-1.81-1.6-3.81-1.6-6,0-3.68,1.44-6.67,4.32-8.96,2.88-2.29,7.2-3.44,12.96-3.44h10.08v-.96c0-2.72-.77-4.72-2.32-6-1.55-1.28-3.47-1.92-5.76-1.92-2.08,0-3.89.49-5.44,1.48-1.55.99-2.51,2.44-2.88,4.36h-10c.27-2.88,1.24-5.39,2.92-7.52,1.68-2.13,3.85-3.77,6.52-4.92,2.67-1.15,5.65-1.72,8.96-1.72,5.65,0,10.11,1.41,13.36,4.24,3.25,2.83,4.88,6.83,4.88,12v24.4h-8.72l-.96-6.4c-1.17,2.13-2.81,3.89-4.92,5.28-2.11,1.39-4.81,2.08-8.12,2.08Zm2.32-8c2.93,0,5.21-.96,6.84-2.88,1.63-1.92,2.65-4.29,3.08-7.12h-8.72c-2.72,0-4.67.49-5.84,1.48-1.17.99-1.76,2.2-1.76,3.64,0,1.55.59,2.75,1.76,3.6,1.17.85,2.72,1.28,4.64,1.28Z"/><path d="m289.08,50.16c-1.87,0-3.4-.56-4.6-1.68s-1.8-2.53-1.8-4.24.6-3.11,1.8-4.2c1.2-1.09,2.73-1.64,4.6-1.64s3.4.55,4.6,1.64c1.2,1.09,1.8,2.49,1.8,4.2s-.6,3.12-1.8,4.24c-1.2,1.12-2.73,1.68-4.6,1.68Zm-5.12,45.84v-39.68h10.24v39.68h-10.24Z"/><path d="m300.92,96v-57.6h10.24v57.6h-10.24Z"/><path d="m351.72,96.96c-3.84,0-7.29-.88-10.36-2.64-3.07-1.76-5.49-4.2-7.28-7.32s-2.68-6.73-2.68-10.84.91-7.72,2.72-10.84c1.81-3.12,4.25-5.56,7.32-7.32,3.07-1.76,6.52-2.64,10.36-2.64s7.21.88,10.28,2.64c3.07,1.76,5.49,4.2,7.28,7.32,1.79,3.12,2.68,6.73,2.68,10.84s-.89,7.72-2.68,10.84c-1.79,3.12-4.23,5.56-7.32,7.32-3.09,1.76-6.53,2.64-10.32,2.64Zm0-8.88c2.67,0,4.99-1,6.96-3,1.97-2,2.96-4.97,2.96-8.92s-.99-6.92-2.96-8.92c-1.97-2-4.27-3-6.88-3s-5.05,1-7,3c-1.95,2-2.92,4.97-2.92,8.92s.97,6.92,2.92,8.92c1.95,2,4.25,3,6.92,3Z"/><path d="m377.16,96v-39.68h9.04l.8,6.72c1.23-2.35,3-4.21,5.32-5.6,2.32-1.39,5.05-2.08,8.2-2.08,4.91,0,8.72,1.55,11.44,4.64,2.72,3.09,4.08,7.63,4.08,13.6v22.4h-10.24v-21.44c0-3.41-.69-6.03-2.08-7.84-1.39-1.81-3.55-2.72-6.48-2.72s-5.24,1.01-7.08,3.04c-1.84,2.03-2.76,4.85-2.76,8.48v20.48h-10.24Z"/><path d="m433.47,96l20.48-56h11.52l20.48,56h-10.88l-4.48-12.96h-21.84l-4.56,12.96h-10.72Zm18.08-20.96h16.24l-8.16-23.28-8.08,23.28Z"/><path d="m506.51,96.96c-4.05,0-7.63-.88-10.72-2.64-3.09-1.76-5.53-4.21-7.32-7.36-1.79-3.15-2.68-6.75-2.68-10.8s.89-7.65,2.68-10.8c1.79-3.15,4.23-5.6,7.32-7.36,3.09-1.76,6.67-2.64,10.72-2.64,5.07,0,9.33,1.32,12.8,3.96,3.47,2.64,5.68,6.28,6.64,10.92h-10.8c-.53-1.92-1.59-3.43-3.16-4.52-1.57-1.09-3.43-1.64-5.56-1.64-2.83,0-5.23,1.07-7.2,3.2-1.97,2.13-2.96,5.09-2.96,8.88s.99,6.75,2.96,8.88c1.97,2.13,4.37,3.2,7.2,3.2,2.13,0,3.99-.53,5.56-1.6,1.57-1.07,2.63-2.59,3.16-4.56h10.8c-.96,4.48-3.17,8.08-6.64,10.8-3.47,2.72-7.73,4.08-12.8,4.08Z"/><path d="m536.59,50.16c-1.87,0-3.4-.56-4.6-1.68s-1.8-2.53-1.8-4.24.6-3.11,1.8-4.2c1.2-1.09,2.73-1.64,4.6-1.64s3.4.55,4.6,1.64c1.2,1.09,1.8,2.49,1.8,4.2s-.6,3.12-1.8,4.24c-1.2,1.12-2.73,1.68-4.6,1.68Zm-5.12,45.84v-39.68h10.24v39.68h-10.24Z"/><path d="m566.67,96.96c-3.73,0-7.07-.91-10-2.72-2.93-1.81-5.25-4.29-6.96-7.44-1.71-3.15-2.56-6.72-2.56-10.72s.85-7.56,2.56-10.68c1.71-3.12,4.03-5.57,6.96-7.36,2.93-1.79,6.27-2.68,10-2.68,2.99,0,5.6.56,7.84,1.68,2.24,1.12,4.05,2.69,5.44,4.72v-23.36h10.24v57.6h-9.12l-1.12-5.68c-1.28,1.76-2.97,3.31-5.08,4.64-2.11,1.33-4.84,2-8.2,2Zm2.16-8.96c3.31,0,6.01-1.11,8.12-3.32,2.11-2.21,3.16-5.05,3.16-8.52s-1.05-6.31-3.16-8.52c-2.11-2.21-4.81-3.32-8.12-3.32s-5.95,1.09-8.08,3.28c-2.13,2.19-3.2,5.01-3.2,8.48s1.07,6.32,3.2,8.56,4.83,3.36,8.08,3.36Z"/><path d="m135.6,28.14c-1.44,0-2.71-.25-3.81-.74s-1.97-1.2-2.6-2.13-.96-2.05-.98-3.37h3.78c.04.92.37,1.68.99,2.31s1.49.94,2.59.94c.95,0,1.71-.23,2.27-.69.56-.46.84-1.07.84-1.83s-.25-1.43-.74-1.88c-.49-.45-1.15-.81-1.97-1.09s-1.7-.58-2.63-.9c-1.51-.52-2.67-1.19-3.46-2.02-.79-.82-1.19-1.91-1.19-3.28-.02-1.16.26-2.15.83-2.98.57-.83,1.35-1.47,2.34-1.93s2.13-.69,3.42-.69,2.46.23,3.46.7c1,.47,1.78,1.12,2.35,1.96.57.84.87,1.84.91,3h-3.84c-.02-.69-.28-1.3-.8-1.83s-1.23-.8-2.14-.8c-.78-.02-1.44.17-1.97.57-.53.4-.8.98-.8,1.75,0,.65.21,1.17.62,1.55.41.38.97.71,1.68.97.71.26,1.52.54,2.44.84.97.34,1.86.73,2.66,1.18.8.45,1.45,1.04,1.93,1.78.49.74.73,1.68.73,2.84,0,1.03-.26,1.98-.78,2.86-.52.88-1.3,1.58-2.32,2.11-1.03.53-2.29.8-3.78.8Z"/><path d="m151.22,27.8V8.2h3.58v19.6h-3.58Z"/><path d="m164.21,27.8V8.2h3.58l9.21,13.8v-13.8h3.58v19.6h-3.58l-9.21-13.78v13.78h-3.58Z"/><path d="m198.88,28.14c-1.98,0-3.68-.42-5.1-1.27-1.42-.85-2.51-2.03-3.28-3.56-.77-1.52-1.15-3.28-1.15-5.28s.38-3.76,1.15-5.29c.76-1.53,1.86-2.72,3.28-3.58,1.42-.86,3.12-1.29,5.1-1.29,2.35,0,4.28.58,5.78,1.75,1.5,1.17,2.44,2.8,2.81,4.91h-3.95c-.24-1.06-.76-1.9-1.55-2.51-.79-.61-1.84-.91-3.15-.91-1.81,0-3.23.62-4.26,1.85-1.03,1.23-1.54,2.92-1.54,5.07s.51,3.83,1.54,5.05,2.45,1.83,4.26,1.83c1.31,0,2.36-.29,3.15-.85.79-.57,1.31-1.36,1.55-2.37h3.95c-.37,2.02-1.31,3.59-2.81,4.73-1.5,1.14-3.43,1.71-5.78,1.71Z"/><path d="m216.24,27.8V8.2h3.58v8.15h8.79v-8.15h3.58v19.6h-3.58v-8.54h-8.79v8.54h-3.58Z"/><path class="cls-2" d="m100.53,27.41v43.66c0,10.51-8.55,19.07-19.07,19.07H22.53c-10.51,0-19.07-8.55-19.07-19.07v-35.12s.04.04.06.06l10.34,10.34v24.71c0,4.78,3.89,8.67,8.67,8.67h58.93c4.78,0,8.67-3.89,8.67-8.67V31.62l-38.13,38.13L10.91,28.66c-2.49-2.49-3.23-6.19-1.88-9.44,1.34-3.24,4.47-5.34,7.98-5.35h18.25c3.24,0,6.29,1.26,8.58,3.55l8.16,8.16,8.16-8.16c2.29-2.29,5.34-3.55,8.58-3.55h9.71s-.04.04-.06.06l-10.68,10.68c-.07.05-.13.11-.19.17l-15.51,15.51-15.51-15.51c-.33-.33-.76-.51-1.23-.51h-14.04l30.78,30.78,33.74-33.74c2.49-2.49,6.19-3.23,9.44-1.88,3.24,1.34,5.34,4.48,5.35,7.98Z"/><rect class="cls-1" width="104" height="104"/></svg>