<svg id="Layer_1" data-name="Layer 1" xmlns="http://www.w3.org/2000/svg" viewBox="0 0 190.98 113.06" xmlns:xlink="http://www.w3.org/1999/xlink">
 <defs>
  <style>
   .cls-1{fill:#0140be;}
  </style>
 </defs>
 <title>
  logo-basic-blue-svg
 </title>
 <path class="cls-1" d="M181.57,5.92a4.71,4.71,0,1,1,4.7,4.7A4.71,4.71,0,0,1,181.57,5.92Zm8.26,0a3.56,3.56,0,1,0-7.11,0,3.56,3.56,0,1,0,7.11,0Zm-5.37-2.68h2c1.28,0,2,.44,2,1.56A1.33,1.33,0,0,1,187,6.23l1.43,2.33h-1l-1.38-2.29h-.6V8.56h-1Zm1,2.28h.88c.58,0,1.09-.08,1.09-.8S186.85,4,186.34,4h-.89Z">
 </path>
 <polygon class="cls-1" points="51.68 68.77 20.36 68.77 20.36 45.2 39.16 45.2 32.53 32.73 20.36 32.72 20.36 13.93 60.66 13.93 60.66 1.18 0 1.17 0 81.53 58.46 81.53 51.68 68.77">
 </polygon>
 <polygon class="cls-1" points="93.66 113.06 137.93 32.72 116.28 32.72 87.71 86.13 60.66 32.72 38.3 32.72 81 113.06 93.66 113.06">
 </polygon>
 <path class="cls-1" d="M131,0C101.47,0,80.34,17,80.34,41.38c0,11.2,3.49,20.83,10.56,28l11.15-20.85a39.84,39.84,0,0,1-.62-7.13c0-17.15,10.45-29.06,29.52-29.06s29.52,10.3,29.52,29.06c0,17.8-13.22,29.05-29.52,29.05a42.13,42.13,0,0,1-7.61-.66L116.8,81.63A85.12,85.12,0,0,0,131,82.75c28,0,50.6-13.93,50.6-41.37S160.43,0,131,0Z">
 </path>
</svg>