<?xml version="1.0" encoding="UTF-8"?>
<svg width="160px" height="60px" viewBox="0 0 160 60" version="1.1" xmlns="http://www.w3.org/2000/svg" xmlns:xlink="http://www.w3.org/1999/xlink">
    <!-- Generator: Sketch 53 (72520) - https://sketchapp.com -->
    <title>logo-horiz</title>
    <desc>Created with Sketch.</desc>
    <defs>
        <polygon id="path-1" points="0.0001824 0.0336313433 59.2455264 0.0336313433 59.2455264 59.0819078 0.0001824 59.0819078"></polygon>
        <polygon id="path-3" points="0 59.257777 159.009024 59.257777 159.009024 0.209318806 0 0.209318806"></polygon>
    </defs>
    <g id="Page-1" stroke="none" stroke-width="1" fill="none" fill-rule="evenodd">
        <g id="homepage-2000-nav-a" transform="translate(-444.000000, -22.000000)">
            <g id="nav">
                <g id="top-nav">
                    <g id="logo-horiz" transform="translate(444.000000, 20.000000)">
                        <g id="Group-35" transform="translate(0.700000, 2.100000)">
                            <g id="Group-3" transform="translate(0.000000, 0.175687)">
                                <mask id="mask-2" fill="white">
                                    <use href="#path-1"></use>
                                </mask>
                                <g id="Clip-2"></g>
                                <path d="M29.6228544,59.0819078 C25.6246464,59.0819078 21.7440864,58.3020242 18.0915264,56.7604361 C14.5639104,55.2742943 11.3965344,53.1455212 8.6769504,50.4341078 C5.9564544,47.7236033 3.8205504,44.5668018 2.3285184,41.050963 C0.7826784,37.4087794 0.0001824,33.5429928 0.0001824,29.5590421 C0.0001824,25.5732734 0.7826784,21.7065779 2.3285184,18.0643943 C3.8205504,14.5494645 5.9564544,11.391754 8.6769504,8.68124955 C11.3965344,5.96983612 14.5639104,3.84197194 18.0915264,2.35401224 C21.7440864,0.81424209 25.6246464,0.0334495522 29.6228544,0.0334495522 C33.6210624,0.0334495522 37.5007104,0.81424209 41.1541824,2.35401224 C44.6817984,3.84197194 47.8491744,5.96983612 50.5687584,8.68124955 C53.2892544,11.391754 55.4251584,14.5494645 56.9162784,18.0643943 C58.4621184,21.7065779 59.2455264,25.5732734 59.2455264,29.5590421 C59.2455264,30.1962197 59.2254624,30.840669 59.1844224,31.4742107 L54.6371904,31.1833451 C54.6700224,30.6461525 54.6891744,30.0989615 54.6891744,29.5590421 C54.6891744,26.1840913 54.0261504,22.9136704 52.7192544,19.8341301 C51.4570464,16.8600287 49.6494624,14.1877003 47.3475744,11.8925884 C45.0447744,9.59838537 42.3625824,7.79592716 39.3785184,6.53793313 C36.2895744,5.23630925 33.0072864,4.57549881 29.6228544,4.57549881 C26.2384224,4.57549881 22.9552224,5.23630925 19.8662784,6.53793313 C16.8831264,7.79592716 14.2009344,9.59838537 11.8981344,11.8925884 C9.5953344,14.1877003 7.7877504,16.8600287 6.5255424,19.8341301 C5.2195584,22.9136704 4.5565344,26.1840913 4.5565344,29.5590421 C4.5565344,32.931266 5.2195584,36.2025958 6.5255424,39.2812272 C7.7877504,42.2553287 9.5953344,44.927657 11.8981344,47.222769 C14.2009344,49.5178809 16.8831264,51.3194301 19.8662784,52.5783331 C22.9552224,53.8790481 26.2384224,54.5398585 29.6228544,54.5398585 C34.1810304,54.5398585 38.6416224,53.3091331 42.5240064,50.9812988 C46.2978624,48.7189093 49.4214624,45.4948451 51.5573664,41.6581451 L55.5428064,43.8614525 C53.0202144,48.3925943 49.3302624,52.2020257 44.8733184,54.874354 C40.2813984,57.6266704 35.0082144,59.0819078 29.6228544,59.0819078" id="Fill-1" fill="#66CC33" mask="url(#mask-2)"></path>
                            </g>
                            <path d="M43.9820208,21.9815233 C45.2387568,23.3185964 45.8671248,25.1319621 45.8671248,27.4207113 L45.8671248,39.4916367 L41.1174288,39.4916367 L41.1174288,28.7941427 C41.1174288,27.4207113 40.7362128,26.3435994 39.9746928,25.56008 C39.2131728,24.7765606 38.1807888,24.3838919 36.8748048,24.3838919 C35.3754768,24.4329755 34.1853168,24.9747128 33.3034128,26.0109218 C32.4205968,27.0462218 31.9791888,28.360571 31.9791888,29.9494248 L31.9791888,39.4916367 L27.2294928,39.4916367 L27.2294928,28.7941427 C27.2294928,27.4207113 26.8546608,26.3435994 26.1049968,25.56008 C25.3562448,24.7765606 24.3284208,24.3838919 23.0233488,24.3838919 C21.5003088,24.4329755 20.2973808,24.9747128 19.4154768,26.0109218 C18.5326608,27.0462218 18.0912528,28.360571 18.0912528,29.9494248 L18.0912528,39.4916367 L13.3780368,39.4916367 L13.3780368,20.1563412 L18.0912528,20.1563412 L18.0912528,23.733989 C19.3735248,21.277083 21.6453168,20.0236337 24.9084528,19.9754591 C26.6002128,19.9754591 28.0220208,20.3790352 29.1693168,21.1870964 C30.3175248,21.9933397 31.1209968,23.1322606 31.5806448,24.6011322 C32.8136688,21.5661307 35.2186128,20.0236337 38.7963888,19.9754591 C40.9961328,19.9754591 42.7252848,20.6444501 43.9820208,21.9815233" id="Fill-4" fill="#333333"></path>
                            <path d="M58.1064384,37.2198849 C58.1064384,38.4751521 57.0868224,39.491364 55.8273504,39.491364 C54.5687904,39.491364 53.5482624,38.4751521 53.5482624,37.2198849 C53.5482624,35.9655267 54.5687904,34.9493148 55.8273504,34.9493148 C57.0868224,34.9493148 58.1064384,35.9655267 58.1064384,37.2198849" id="Fill-6" fill="#333333"></path>
                            <path d="M91.5708192,18.1220085 C92.3587872,18.9609742 92.7545952,20.0989861 92.7545952,21.5351354 L92.7545952,29.1121861 L89.7723552,29.1121861 L89.7723552,22.3977339 C89.7723552,21.5351354 89.5343232,20.8588727 89.0555232,20.3671279 C88.5785472,19.877201 87.9282912,19.6299652 87.1093152,19.6299652 C86.1681312,19.6608697 85.4212032,20.000819 84.8667072,20.6507219 C84.3131232,21.3015339 84.0358752,22.1250473 84.0358752,23.1230801 L84.0358752,29.1121861 L81.0554592,29.1121861 L81.0554592,22.3977339 C81.0554592,21.5351354 80.8192512,20.8588727 80.3486592,20.3671279 C79.8789792,19.877201 79.2341952,19.6299652 78.4143072,19.6299652 C77.4585312,19.6608697 76.7033952,20.000819 76.1498112,20.6507219 C75.5953152,21.3015339 75.3198912,22.1250473 75.3198912,23.1230801 L75.3198912,29.1121861 L72.3613632,29.1121861 L72.3613632,16.975816 L75.3198912,16.975816 L75.3198912,19.2218443 C76.1233632,17.6793473 77.5497312,16.893101 79.5980832,16.8621966 C80.6605632,16.8621966 81.5515872,17.116704 82.2729792,17.6229921 C82.9943712,18.1292801 83.4977952,18.843719 83.7868992,19.7663085 C84.5602752,17.8611384 86.0696352,16.893101 88.3149792,16.8621966 C89.6948352,16.8621966 90.7819392,17.2812249 91.5708192,18.1220085" id="Fill-8" fill="#333333"></path>
                            <path d="M105.51083,18.5410369 C106.489406,19.6454175 106.97915,21.1960951 106.97915,23.1912518 C106.97915,23.5848294 106.970942,23.8802399 106.95635,24.0765742 L97.9667664,24.0765742 C98.1628464,24.9382637 98.5695984,25.6154354 99.1842864,26.1071801 C99.7971504,26.597107 100.552286,26.8443428 101.448782,26.8443428 C102.069854,26.8443428 102.666302,26.7279966 103.23539,26.4925772 C103.803566,26.2571578 104.300606,25.9208443 104.725598,25.4827279 L106.318862,27.1388443 C105.712382,27.8041996 104.971838,28.3177593 104.099966,28.6813413 C103.22627,29.0449234 102.260462,29.2258055 101.197982,29.2258055 C99.9540144,29.2258055 98.8568784,28.9694801 97.9083984,28.4541025 C96.9599184,27.9414518 96.2275824,27.2179234 95.7123024,26.2871533 C95.1961104,25.358201 94.9389264,24.2883607 94.9389264,23.0776324 C94.9389264,21.8687219 95.2006704,20.7943369 95.7250704,19.857204 C96.2476464,18.9191622 96.9790704,18.1901801 97.9211664,17.6675309 C98.8614384,17.1457906 99.9312144,16.8849204 101.12867,16.8849204 C103.07123,16.8849204 104.532254,17.4366563 105.51083,18.5410369 L105.51083,18.5410369 Z M104.27051,22.1032324 C104.239502,21.2115473 103.944014,20.4989264 103.383134,19.9699145 C102.821342,19.4409025 102.07715,19.1763966 101.152382,19.1763966 C100.286894,19.1763966 99.5636784,19.4372667 98.9781744,19.959916 C98.3935824,20.4816563 98.0351664,21.1960951 97.8974544,22.1032324 L104.27051,22.1032324 Z" id="Fill-10" fill="#333333"></path>
                            <path d="M114.159691,17.5095545 C114.865579,17.093253 115.688203,16.8787396 116.629387,16.8614694 L116.629387,19.7210425 C115.369915,19.6455993 114.364891,19.9364649 113.613403,20.5954575 C112.862827,21.2517231 112.487083,22.1406813 112.487083,23.2596052 L112.487083,29.1123679 L109.528555,29.1123679 L109.528555,16.9750888 L112.487083,16.9750888 L112.487083,19.3129216 C112.896571,18.5266754 113.454715,17.924947 114.159691,17.5095545" id="Fill-12" fill="#333333"></path>
                            <path d="M124.083893,19.4490831 C123.453701,19.2518399 122.873669,19.1536727 122.342885,19.1536727 C121.841285,19.1536727 121.442741,19.2409324 121.147253,19.4145428 C120.850853,19.5881533 120.703109,19.8562951 120.703109,20.2198772 C120.703109,20.5989115 120.889157,20.8897772 121.261253,21.0933831 C121.632437,21.2978981 122.220677,21.5133204 123.025061,21.7396503 C123.875045,21.9977936 124.571813,22.2504831 125.119013,22.4986279 C125.664389,22.7494996 126.139541,23.1194443 126.541733,23.6111891 C126.943925,24.1029339 127.143653,24.749201 127.143653,25.5508996 C127.143653,26.7307234 126.688565,27.6378607 125.778389,28.2723115 C124.868213,28.9076712 123.722741,29.2258055 122.342885,29.2258055 C121.401701,29.2258055 120.483317,29.0785548 119.587733,28.7840533 C118.693061,28.4877339 117.935189,28.0687055 117.312293,27.5251503 L118.336469,25.460004 C118.882757,25.9290249 119.534837,26.2962428 120.293621,26.5598399 C121.052405,26.8252548 121.773797,26.9579622 122.456885,26.9579622 C123.001349,26.9579622 123.438197,26.8634309 123.764693,26.6734593 C124.091189,26.4843966 124.254437,26.2008025 124.254437,25.8235861 C124.254437,25.400013 124.064741,25.0818787 123.685349,24.8700921 C123.305045,24.6573966 122.691269,24.424704 121.841285,24.1665607 C121.022309,23.9256876 120.354725,23.6866324 119.838533,23.4521219 C119.322341,23.2176115 118.875461,22.86221 118.496069,22.3850085 C118.115765,21.9096249 117.926981,21.2860816 117.926981,20.5152876 C117.926981,19.3191025 118.362917,18.4092384 119.236613,17.7811503 C120.108485,17.1539712 121.203797,16.8394727 122.523461,16.8394727 C123.328757,16.8394727 124.121285,16.9530921 124.901957,17.1812399 C125.684453,17.4066607 126.379397,17.7247951 126.984965,18.132916 L125.916101,20.264416 C125.323301,19.918104 124.712261,19.6463264 124.083893,19.4490831" id="Fill-14" fill="#333333"></path>
                            <mask id="mask-4" fill="white">
                                <use href="#path-3"></use>
                            </mask>
                            <g id="Clip-17"></g>
                            <polygon id="Fill-16" fill="#333333" mask="url(#mask-4)" points="129.670896 29.112277 132.629424 29.112277 132.629424 16.9749979 129.670896 16.9749979"></polygon>
                            <polygon id="Fill-18" fill="#333333" mask="url(#mask-4)" points="134.427614 16.9982672 137.523854 16.9764522 140.70947 26.2096194 143.827598 16.9764522 146.808926 16.9764522 142.165934 29.1128224 139.117118 29.1128224"></polygon>
                            <path d="M157.540248,18.5410369 C158.518824,19.6454175 159.008568,21.1960951 159.008568,23.1912518 C159.008568,23.5848294 159.001272,23.8802399 158.98668,24.0765742 L149.996184,24.0765742 C150.192264,24.9382637 150.599016,25.6154354 151.213704,26.1071801 C151.826568,26.597107 152.581704,26.8443428 153.4782,26.8443428 C154.100184,26.8443428 154.69572,26.7279966 155.264808,26.4925772 C155.832984,26.2571578 156.330936,25.9208443 156.755928,25.4827279 L158.349192,27.1388443 C157.7418,27.8041996 157.002168,28.3177593 156.129384,28.6813413 C155.2566,29.0449234 154.28988,29.2258055 153.2274,29.2258055 C151.983432,29.2258055 150.886296,28.9694801 149.938728,28.4541025 C148.990248,27.9414518 148.257912,27.2179234 147.74172,26.2871533 C147.225528,25.358201 146.968344,24.2883607 146.968344,23.0776324 C146.968344,21.8687219 147.230088,20.7943369 147.754488,19.857204 C148.277976,18.9191622 149.0094,18.1901801 149.950584,17.6675309 C150.890856,17.1457906 151.960632,16.8849204 153.159,16.8849204 C155.100648,16.8849204 156.562584,17.4366563 157.540248,18.5410369 L157.540248,18.5410369 Z M156.30084,22.1032324 C156.26892,21.2115473 155.974344,20.4989264 155.412552,19.9699145 C154.851672,19.4409025 154.106568,19.1763966 153.1818,19.1763966 C152.316312,19.1763966 151.593096,19.4372667 151.008504,19.959916 C150.423912,20.4816563 150.064584,21.1960951 149.926872,22.1032324 L156.30084,22.1032324 Z" id="Fill-19" fill="#333333" mask="url(#mask-4)"></path>
                            <path d="M75.8699184,38.7981039 C75.4777584,39.0662457 75.0564144,39.2071337 74.6058864,39.221677 C74.1699504,39.221677 73.8243024,39.0880606 73.5707664,38.8190099 C73.3154064,38.551777 73.1886384,38.1491099 73.1886384,37.6137352 L73.1886384,34.2242412 L72.3714864,34.2242412 L72.3605424,33.658871 L73.1886384,33.658871 L73.1886384,32.1927263 L73.9191504,32.1927263 L73.9191504,33.658871 L75.7723344,33.6479636 L75.7723344,34.2242412 L73.9191504,34.2242412 L73.9191504,37.4937531 C73.9191504,38.1972845 74.1808944,38.5481412 74.7034704,38.5481412 C74.9943984,38.5481412 75.3108624,38.4472472 75.6519504,38.2436412 L75.8699184,38.7981039 Z" id="Fill-20" fill="#333333" mask="url(#mask-4)"></path>
                            <path d="M81.35268,34.3163184 C81.8178,34.8771437 82.031208,35.6324855 81.99564,36.5814348 L77.232264,36.5814348 C77.283336,37.1895258 77.5086,37.6812706 77.908056,38.0530333 C78.308424,38.4266139 78.802728,38.6138587 79.390968,38.6138587 C79.753944,38.6138587 80.091384,38.5484139 80.4042,38.4175243 C80.717928,38.2875437 80.986056,38.1021169 81.212232,37.8630616 L81.625368,38.2766363 C81.349032,38.5738646 81.016152,38.8038303 80.628552,38.9665333 C80.239128,39.1301452 79.813224,39.2110422 79.347192,39.2110422 C78.79452,39.2110422 78.303864,39.0901512 77.875224,38.8465512 C77.446584,38.6047691 77.110968,38.2666378 76.866552,37.8303393 C76.623048,37.3967676 76.501752,36.901387 76.501752,36.3432885 C76.501752,35.7924616 76.623048,35.298899 76.866552,34.8607825 C77.110968,34.4217572 77.446584,34.0818079 77.875224,33.8382079 C78.303864,33.5955169 78.787224,33.4746258 79.324392,33.4746258 C80.211768,33.4746258 80.88756,33.7564019 81.35268,34.3163184 L81.35268,34.3163184 Z M81.341736,36.0169736 C81.304344,35.4234258 81.10644,34.9498601 80.748024,34.5999124 C80.387784,34.2472378 79.918104,34.0718094 79.336248,34.0718094 C78.7626,34.0718094 78.281976,34.2499646 77.897112,34.6044572 C77.512248,34.9598587 77.290632,35.4306975 77.232264,36.0169736 L81.341736,36.0169736 Z" id="Fill-21" fill="#333333" mask="url(#mask-4)"></path>
                            <path d="M85.7888304,34.1157119 C85.3820784,34.1157119 85.0154544,34.2102433 84.6871344,34.398397 C84.3606384,34.5874597 84.1061904,34.8492388 83.9247024,35.1855522 C83.7441264,35.5227746 83.6520144,35.9090806 83.6520144,36.3426522 C83.6520144,36.7780418 83.7441264,37.1652567 83.9247024,37.505206 C84.1061904,37.8460642 84.3606384,38.1105701 84.6871344,38.2978149 C85.0154544,38.4877866 85.3820784,38.5805 85.7888304,38.5805 C86.1591024,38.5805 86.4992784,38.5150552 86.8075344,38.3850746 C87.1176144,38.2541851 87.3766224,38.0660313 87.5882064,37.8197045 L88.0013424,38.2541851 C87.7468944,38.5586851 87.4276944,38.7941045 87.0428304,38.9613522 C86.6570544,39.1286 86.2284144,39.209497 85.7569104,39.209497 C85.2106224,39.209497 84.7245264,39.0904239 84.2949744,38.8468239 C83.8663344,38.6032239 83.5307184,38.2632746 83.2872144,37.8260672 C83.0437104,37.3879507 82.9224144,36.8934791 82.9224144,36.3426522 C82.9224144,35.7927343 83.0437104,35.2982627 83.2872144,34.8592373 C83.5307184,34.4220299 83.8663344,34.0811716 84.2949744,33.8384806 C84.7245264,33.5966985 85.2106224,33.4748985 85.7569104,33.4748985 C86.1992304,33.4748985 86.6050704,33.5476149 86.9716944,33.6921388 C87.3383184,33.8375716 87.6529584,34.0402687 87.9147024,34.3011388 L87.4997424,34.7892478 C87.0346224,34.3393149 86.4646224,34.1157119 85.7888304,34.1157119" id="Fill-22" fill="#333333" mask="url(#mask-4)"></path>
                            <path d="M94.2960576,34.066901 C94.6854816,34.4622966 94.8797376,35.0031249 94.8797376,35.6902951 L94.8797376,39.1897727 L94.1382816,39.1897727 L94.1382816,35.8657234 C94.1382816,35.3294399 93.9887136,34.9095025 93.6914016,34.6050025 C93.3940896,34.3005025 92.9791296,34.1477981 92.4492576,34.1477981 C91.8163296,34.1559787 91.3202016,34.3632204 90.9608736,34.7722503 C90.6006336,35.1821891 90.4218816,35.7230175 90.4218816,36.3974622 L90.4218816,39.1897727 L89.6904576,39.1897727 L89.6904576,31.1282488 L90.4218816,31.1282488 L90.4218816,34.8440578 C90.8067456,33.945101 91.5627936,33.4897145 92.6882016,33.4751712 C93.3712896,33.4751712 93.9075456,33.6715055 94.2960576,34.066901" id="Fill-23" fill="#333333" mask="url(#mask-4)"></path>
                            <path d="M101.424614,34.066901 C101.814038,34.4622966 102.008294,35.0031249 102.008294,35.6902951 L102.008294,39.1897727 L101.26775,39.1897727 L101.26775,35.8657234 C101.26775,35.3294399 101.11727,34.9095025 100.819958,34.6050025 C100.522646,34.3005025 100.107686,34.1477981 99.5778144,34.1477981 C98.9886624,34.1559787 98.5180704,34.3368607 98.1651264,34.6913533 C97.8130944,35.0467548 97.6106304,35.5248652 97.5613824,36.1265936 L97.5613824,39.1897727 L96.8299584,39.1897727 L96.8299584,33.4960772 L97.5613824,33.4960772 L97.5613824,34.8213339 C97.7574624,34.3813996 98.0456544,34.047813 98.4268704,33.8214831 C98.8099104,33.5978801 99.2722944,33.4815339 99.8167584,33.4751712 C100.499846,33.4751712 101.036102,33.6715055 101.424614,34.066901" id="Fill-24" fill="#333333" mask="url(#mask-4)"></path>
                            <path d="M107.730274,33.8388442 C108.16621,34.0815352 108.509122,34.4205755 108.755362,34.8541472 C109.003426,35.2895367 109.124722,35.7821904 109.124722,36.3321084 C109.124722,36.8892979 109.003426,37.3874054 108.755362,37.8264307 C108.509122,38.2645472 108.16621,38.6044964 107.730274,38.8471875 C107.294338,39.0889696 106.799122,39.2098606 106.248274,39.2098606 C105.696514,39.2098606 105.20221,39.0889696 104.765362,38.8471875 C104.329426,38.6044964 103.987426,38.2645472 103.741186,37.8264307 C103.494034,37.3874054 103.370914,36.8892979 103.370914,36.3321084 C103.370914,35.7821904 103.494034,35.2895367 103.741186,34.8541472 C103.987426,34.4205755 104.329426,34.0815352 104.765362,33.8388442 C105.20221,33.5961531 105.696514,33.4752621 106.248274,33.4752621 C106.799122,33.4752621 107.294338,33.5961531 107.730274,33.8388442 M105.136546,34.3878531 C104.809138,34.5760069 104.55469,34.8405128 104.373202,35.1804621 C104.191714,35.5213203 104.101426,35.9085352 104.101426,36.3430158 C104.101426,36.7838591 104.191714,37.1765278 104.373202,37.516477 C104.55469,37.8573352 104.809138,38.1218412 105.136546,38.3099949 C105.463954,38.4981487 105.834226,38.591771 106.248274,38.591771 C106.663234,38.591771 107.032594,38.4981487 107.360914,38.3099949 C107.68741,38.1218412 107.940946,37.8573352 108.123346,37.516477 C108.303922,37.1765278 108.395122,36.7838591 108.395122,36.3430158 C108.395122,35.9085352 108.303922,35.5213203 108.123346,35.1804621 C107.940946,34.8405128 107.68741,34.5760069 107.360914,34.3878531 C107.032594,34.1987904 106.663234,34.1051681 106.248274,34.1051681 C105.834226,34.1051681 105.463954,34.1987904 105.136546,34.3878531" id="Fill-25" fill="#333333" mask="url(#mask-4)"></path>
                            <polygon id="Fill-26" fill="#333333" mask="url(#mask-4)" points="110.727744 39.1898636 111.457344 39.1898636 111.457344 31.1283397 110.727744 31.1283397"></polygon>
                            <path d="M117.421186,33.8388442 C117.857122,34.0815352 118.199122,34.4205755 118.445362,34.8541472 C118.693426,35.2895367 118.816546,35.7821904 118.816546,36.3321084 C118.816546,36.8892979 118.693426,37.3874054 118.445362,37.8264307 C118.199122,38.2645472 117.857122,38.6044964 117.421186,38.8471875 C116.98525,39.0889696 116.490946,39.2098606 115.938274,39.2098606 C115.386514,39.2098606 114.89221,39.0889696 114.455362,38.8471875 C114.020338,38.6044964 113.678338,38.2645472 113.431186,37.8264307 C113.184946,37.3874054 113.060914,36.8892979 113.060914,36.3321084 C113.060914,35.7821904 113.184946,35.2895367 113.431186,34.8541472 C113.678338,34.4205755 114.020338,34.0815352 114.455362,33.8388442 C114.89221,33.5961531 115.386514,33.4752621 115.938274,33.4752621 C116.490946,33.4752621 116.98525,33.5961531 117.421186,33.8388442 M114.826546,34.3878531 C114.50005,34.5760069 114.245602,34.8405128 114.063202,35.1804621 C113.881714,35.5213203 113.791426,35.9085352 113.791426,36.3430158 C113.791426,36.7838591 113.881714,37.1765278 114.063202,37.516477 C114.245602,37.8573352 114.50005,38.1218412 114.826546,38.3099949 C115.153954,38.4981487 115.524226,38.591771 115.938274,38.591771 C116.353234,38.591771 116.723506,38.4981487 117.050914,38.3099949 C117.37741,38.1218412 117.630946,37.8573352 117.813346,37.516477 C117.994834,37.1765278 118.086034,36.7838591 118.086034,36.3430158 C118.086034,35.9085352 117.994834,35.5213203 117.813346,35.1804621 C117.630946,34.8405128 117.37741,34.5760069 117.050914,34.3878531 C116.723506,34.1987904 116.353234,34.1051681 115.938274,34.1051681 C115.524226,34.1051681 115.153954,34.1987904 114.826546,34.3878531" id="Fill-27" fill="#333333" mask="url(#mask-4)"></path>
                            <path d="M125.301413,33.4961681 L125.301413,38.5908621 C125.301413,39.1425979 125.185589,39.6234352 124.953029,40.0361009 C124.720469,40.4487666 124.388501,40.7659919 123.955301,40.9868681 C123.523925,41.2068352 123.024149,41.3177278 122.456885,41.3177278 C121.614197,41.3177278 120.833525,41.02868 120.113045,40.4487666 L120.461429,39.9279352 C120.753269,40.1806248 121.057877,40.3724143 121.377077,40.5042128 C121.698101,40.6341934 122.046485,40.6987293 122.424965,40.6987293 C123.077957,40.6987293 123.599621,40.5096666 123.989045,40.1288143 C124.377557,39.7479621 124.571813,39.2389472 124.571813,38.6017696 L124.571813,37.67918 C124.368437,38.0782113 124.077509,38.389074 123.699029,38.613586 C123.321461,38.8380979 122.885525,38.9508084 122.392133,38.9508084 C121.882325,38.9508084 121.430885,38.8326442 121.034165,38.5972248 C120.637445,38.3618054 120.329189,38.0354904 120.107573,37.619189 C119.886869,37.2028875 119.774693,36.7302307 119.774693,36.2021278 C119.774693,35.6731158 119.886869,35.2013681 120.107573,34.7896113 C120.329189,34.3769457 120.640181,34.0533576 121.039637,33.821574 C121.440005,33.5906994 121.893269,33.4752621 122.402165,33.4752621 C122.895557,33.4752621 123.329669,33.5852457 123.699029,33.8061218 C124.069301,34.0269979 124.360229,34.3396785 124.571813,34.7459815 L124.571813,33.4961681 L125.301413,33.4961681 Z M123.578645,38.0863919 C123.891461,37.901874 124.135877,37.6455487 124.310069,37.3201427 C124.484261,36.9947367 124.571813,36.6293367 124.571813,36.2239427 C124.571813,35.8103681 124.484261,35.4413322 124.310069,35.1150173 C124.135877,34.7896113 123.891461,34.5341949 123.578645,34.3487681 C123.267653,34.1642501 122.914709,34.0724457 122.521637,34.0724457 C122.129477,34.0724457 121.777445,34.1642501 121.465541,34.3487681 C121.152725,34.5341949 120.907397,34.7896113 120.728645,35.1150173 C120.550805,35.4413322 120.461429,35.8103681 120.461429,36.2239427 C120.461429,36.6356994 120.550805,37.0038263 120.728645,37.3255964 C120.907397,37.6473666 121.149989,37.901874 121.460069,38.0863919 C121.768325,38.2709099 122.123093,38.3636233 122.521637,38.3636233 C122.914709,38.3636233 123.267653,38.2709099 123.578645,38.0863919 L123.578645,38.0863919 Z" id="Fill-28" fill="#333333" mask="url(#mask-4)"></path>
                            <path d="M128.016072,31.4918309 C128.11092,31.5890891 128.15652,31.7108891 128.15652,31.855413 C128.15652,32.0008458 128.108184,32.1244637 128.0106,32.2253578 C127.913016,32.3271607 127.794456,32.3780622 127.655832,32.3780622 C127.510824,32.3780622 127.389528,32.3271607 127.291032,32.2253578 C127.192536,32.1244637 127.143288,32.0008458 127.143288,31.855413 C127.143288,31.7108891 127.192536,31.5890891 127.291032,31.4918309 C127.389528,31.3954816 127.510824,31.3463981 127.655832,31.3463981 C127.801752,31.3463981 127.921224,31.3954816 128.016072,31.4918309 L128.016072,31.4918309 Z M127.28556,39.1897727 L128.016072,39.1897727 L128.016072,33.4969861 L127.28556,33.4969861 L127.28556,39.1897727 Z" id="Fill-29" fill="#333333" mask="url(#mask-4)"></path>
                            <path d="M134.392046,34.3163184 C134.857166,34.8771437 135.071486,35.6324855 135.035006,36.5814348 L130.27163,36.5814348 C130.322702,37.1895258 130.547966,37.6812706 130.948334,38.0530333 C131.34779,38.4266139 131.842094,38.6138587 132.431246,38.6138587 C132.79331,38.6138587 133.13075,38.5484139 133.444478,38.4175243 C133.756382,38.2875437 134.025422,38.1021169 134.251598,37.8630616 L134.664734,38.2766363 C134.38931,38.5738646 134.055518,38.8038303 133.667918,38.9665333 C133.278494,39.1301452 132.851678,39.2110422 132.386558,39.2110422 C131.833886,39.2110422 131.34323,39.0901512 130.91459,38.8465512 C130.486862,38.6047691 130.151246,38.2666378 129.905918,37.8303393 C129.662414,37.3967676 129.54203,36.901387 129.54203,36.3432885 C129.54203,35.7924616 129.662414,35.298899 129.905918,34.8607825 C130.151246,34.4217572 130.486862,34.0818079 130.91459,33.8382079 C131.34323,33.5955169 131.82659,33.4746258 132.363758,33.4746258 C133.252046,33.4746258 133.926926,33.7564019 134.392046,34.3163184 L134.392046,34.3163184 Z M134.381102,36.0169736 C134.344622,35.4234258 134.146718,34.9498601 133.78739,34.5999124 C133.42715,34.2472378 132.95747,34.0718094 132.375614,34.0718094 C131.801966,34.0718094 131.322254,34.2499646 130.93739,34.6044572 C130.551614,34.9598587 130.329998,35.4306975 130.27163,36.0169736 L134.381102,36.0169736 Z" id="Fill-30" fill="#333333" mask="url(#mask-4)"></path>
                            <path d="M138.784603,34.1867922 C138.515563,34.11044 138.250171,34.0731728 137.988427,34.0731728 C137.625451,34.0731728 137.333611,34.1431624 137.111995,34.2831415 C136.889467,34.4258475 136.779115,34.6367251 136.779115,34.9194101 C136.779115,35.1148355 136.839307,35.2739027 136.958779,35.3975206 C137.078251,35.5211385 137.228731,35.6211236 137.405659,35.6965669 C137.584411,35.7720101 137.832475,35.8583609 138.153499,35.9519833 C138.544747,36.0674206 138.865771,36.18104 139.111099,36.2937504 C139.358251,36.4064609 139.568923,36.5691639 139.744027,36.7818594 C139.919131,36.9972818 140.005771,37.27724 140.005771,37.6244609 C140.005771,38.1389296 139.808779,38.5315982 139.416619,38.8033758 C139.025371,39.0751534 138.534715,39.2105878 137.945563,39.2105878 C137.531515,39.2105878 137.132059,39.1424161 136.746283,39.0051639 C136.361419,38.8670027 136.037659,38.6715773 135.775915,38.4179788 L136.070491,37.8962385 C136.318555,38.1207504 136.610395,38.2979967 136.947835,38.4288863 C137.285275,38.5597758 137.629099,38.6243116 137.977483,38.6243116 C138.363259,38.6243116 138.677899,38.5452325 138.920491,38.3852564 C139.163995,38.2261893 139.287115,37.9934967 139.287115,37.6899057 C139.287115,37.479937 139.224187,37.3081445 139.101067,37.1745281 C138.977035,37.0400027 138.822907,36.9345639 138.638683,36.8591206 C138.452635,36.7818594 138.195451,36.6945997 137.868955,36.5927967 C137.483179,36.4773594 137.171275,36.364649 136.932331,36.2555743 C136.691563,36.1464997 136.488187,35.9892504 136.321291,35.7838266 C136.154395,35.5765848 136.070491,35.3066251 136.070491,34.9739475 C136.070491,34.4740221 136.257451,34.0977146 136.632283,33.8441161 C137.007115,33.5914266 137.473147,33.4641728 138.033115,33.4641728 C138.360523,33.4641728 138.676075,33.5078027 138.981595,33.5941534 C139.287115,33.6805042 139.558891,33.8004863 139.797835,33.9522818 L139.515115,34.5076534 C139.297147,34.3694922 139.053643,34.2622355 138.784603,34.1867922" id="Fill-31" fill="#333333" mask="url(#mask-4)"></path>
                            <path d="M145.18283,31.4918309 C145.277678,31.5890891 145.32419,31.7108891 145.32419,31.855413 C145.32419,32.0008458 145.275854,32.1244637 145.177358,32.2253578 C145.080686,32.3271607 144.962126,32.3780622 144.823502,32.3780622 C144.677582,32.3780622 144.556286,32.3271607 144.458702,32.2253578 C144.360206,32.1244637 144.310958,32.0008458 144.310958,31.855413 C144.310958,31.7108891 144.360206,31.5890891 144.458702,31.4918309 C144.556286,31.3954816 144.677582,31.3463981 144.823502,31.3463981 C144.969422,31.3463981 145.087982,31.3954816 145.18283,31.4918309 L145.18283,31.4918309 Z M144.45323,39.1897727 L145.18283,39.1897727 L145.18283,33.4969861 L144.45323,33.4969861 L144.45323,39.1897727 Z" id="Fill-32" fill="#333333" mask="url(#mask-4)"></path>
                            <path d="M151.90345,34.066901 C152.291962,34.4622966 152.48713,35.0031249 152.48713,35.6902951 L152.48713,39.1897727 L151.744762,39.1897727 L151.744762,35.8657234 C151.744762,35.3294399 151.595194,34.9095025 151.297882,34.6050025 C151.00057,34.3005025 150.58561,34.1477981 150.055738,34.1477981 C149.466586,34.1559787 148.995994,34.3368607 148.643962,34.6913533 C148.291018,35.0467548 148.089466,35.5248652 148.040218,36.1265936 L148.040218,39.1897727 L147.308794,39.1897727 L147.308794,33.4960772 L148.040218,33.4960772 L148.040218,34.8213339 C148.235386,34.3813996 148.523578,34.047813 148.905706,33.8214831 C149.287834,33.5978801 149.750218,33.4815339 150.295594,33.4751712 C150.978682,33.4751712 151.514026,33.6715055 151.90345,34.066901" id="Fill-33" fill="#333333" mask="url(#mask-4)"></path>
                            <path d="M156.704856,34.1157119 C156.297192,34.1157119 155.930568,34.2102433 155.604072,34.398397 C155.276664,34.5874597 155.021304,34.8492388 154.840728,35.1855522 C154.65924,35.5227746 154.56804,35.9090806 154.56804,36.3426522 C154.56804,36.7780418 154.65924,37.1652567 154.840728,37.505206 C155.021304,37.8460642 155.276664,38.1105701 155.604072,38.2978149 C155.930568,38.4877866 156.297192,38.5805 156.704856,38.5805 C157.074216,38.5805 157.414392,38.5150552 157.72356,38.3850746 C158.032728,38.2541851 158.292648,38.0660313 158.50332,37.8197045 L158.917368,38.2541851 C158.662008,38.5586851 158.34372,38.7941045 157.957944,38.9613522 C157.572168,39.1286 157.14444,39.209497 156.672024,39.209497 C156.126648,39.209497 155.63964,39.0904239 155.211,38.8468239 C154.78236,38.6032239 154.445832,38.2632746 154.20324,37.8260672 C153.959736,37.3879507 153.837528,36.8934791 153.837528,36.3426522 C153.837528,35.7927343 153.959736,35.2982627 154.20324,34.8592373 C154.445832,34.4220299 154.78236,34.0811716 155.211,33.8384806 C155.63964,33.5966985 156.126648,33.4748985 156.672024,33.4748985 C157.115256,33.4748985 157.520184,33.5476149 157.88772,33.6921388 C158.254344,33.8375716 158.568072,34.0402687 158.829816,34.3011388 L158.41668,34.7892478 C157.949736,34.3393149 157.379736,34.1157119 156.704856,34.1157119" id="Fill-34" fill="#333333" mask="url(#mask-4)"></path>
                        </g>
                    </g>
                </g>
            </g>
        </g>
    </g>
</svg>